# xmcd
#
# Track frame offsets:
#	150
#	15910
#	36770
#	52943
#	68948
#	85565
#	109220
#	127141
#	148088
#	165670
#	188599
#	214899
#	229997
#	251503
#	270035
#	286630
#	300052
#
# Disc length: 4125 seconds
#
# Revision: 1
# Processed by: cddbd v1.4PL0 Copyright (c) Steve Scherf et al.
# Submitted via: audiograbber 1.80
#
DISCID=d8101b11
DTITLE=Stefan Banica Jr - De dragoste...in toate felurile
DYEAR=1900
DGENRE=
TTITLE0=Gaseste-mi Loc In Inima Ta
TTITLE1=Am Uitat
TTITLE2=Fata Din Visul Meu
TTITLE3=Georget
TTITLE4=Asta A Fost, Atit A Ramas
TTITLE5=Inca O Zi
TTITLE6=Asta-s Eu
TTITLE7=Te Iubesc (Femeie)
TTITLE8=Marius Cocoon
TTITLE9=Fiara
TTITLE10=Iani
TTITLE11=Poveste
TTITLE12=Mi-e Dor de Ochii Tai
TTITLE13=Rodica
TTITLE14=Bubulina Gospodina
TTITLE15=Te...Rock Frumos
TTITLE16=White Christmas
EXTD=
EXTT0=
EXTT1=
EXTT2=
EXTT3=
EXTT4=
EXTT5=
EXTT6=
EXTT7=
EXTT8=
EXTT9=
EXTT10=
EXTT11=
EXTT12=
EXTT13=
EXTT14=
EXTT15=
EXTT16=
PLAYORDER=
